Land_normalized_Motion_pl02
version=1
nRows=20
nColumns=43
inDegrees=yes
endheader
time		pelvis_tilt		pelvis_list		pelvis_rotation		pelvis_tx		pelvis_ty		pelvis_tz		hip_flexion_r		hip_adduction_r		hip_rotation_r		knee_angle_r		ankle_angle_r		subtalar_angle_r		mtp_angle_r		hip_flexion_l		hip_adduction_l		hip_rotation_l		knee_angle_l		ankle_angle_l		subtalar_angle_l		mtp_angle_l		lumbar_extension		lumbar_bending		lumbar_rotation		neck_flexion		neck_lateral_bending		neck_rotation		arm_flex_r		arm_add_r		arm_rot_r		elbow_flex_r		pro_sup_r		wrist_flex_r		wrist_dev_r		hand_finger_flex_r		arm_flex_l		arm_add_l		arm_rot_l		elbow_flex_l		pro_sup_l		wrist_flex_l		wrist_dev_l		hand_finger_flex_l		
0.680000		1.887957		8.935006		89.030775		0.023772		1.026322		0.640539		23.693205		-2.782125		-12.098415		-28.041867		-18.948338		1.045094		1.931239		28.499440		-8.270274		-4.910015		-33.753373		-26.431323		7.494905		14.022040		-39.304497		4.281931		1.076848		-10.897601		-0.648063		0.424313		-53.062765		-13.743074		-50.144372		47.569598		113.239200		17.573310		-7.744926		-21.620264		-53.062833		-15.341462		-23.212876		47.333824		124.448479		-22.060754		-8.666967		-26.536032		
0.682778		1.773307		8.051510		88.968953		0.023408		1.012346		0.637012		25.884493		-2.889038		-11.209655		-30.222169		-18.956911		0.663106		1.334234		30.600446		-7.989491		-4.073630		-35.924792		-26.526312		7.136600		13.612265		-38.528601		4.176380		1.145989		-10.781388		-0.736002		0.239732		-52.398861		-13.627552		-49.888579		47.605236		113.095931		17.314465		-8.242735		-21.227564		-52.477289		-15.261344		-23.136409		46.974385		124.262597		-22.661497		-9.011064		-26.520487		
0.685556		1.785852		8.418354		88.948093		0.023132		1.001010		0.633284		26.446260		-2.883183		-10.539953		-31.970395		-19.133939		0.755489		1.197253		31.098703		-7.834090		-3.370954		-37.678895		-26.661583		7.169994		13.522271		-39.239218		4.175494		1.246577		-10.058784		-0.815451		0.166591		-51.568320		-13.476928		-49.674410		47.882324		113.059108		17.276158		-8.383086		-21.135339		-51.808400		-15.164039		-23.235295		46.961894		124.163053		-22.857230		-8.970279		-26.536379		
0.688333		1.740646		8.369139		88.899525		0.022852		0.988601		0.629602		27.559597		-2.888420		-9.759048		-33.825557		-19.246870		0.793786		1.036434		32.160288		-7.634552		-2.779145		-39.596863		-26.867855		7.003159		13.339421		-39.461519		4.116950		1.321013		-9.467598		-0.908530		0.047679		-50.773151		-13.367458		-49.416074		48.152571		113.006159		17.208122		-8.718298		-20.933651		-51.162380		-15.078963		-23.271578		46.881227		124.140490		-23.260503		-9.141526		-26.555793		
0.691111		1.685490		8.104944		88.829875		0.022597		0.975695		0.625861		28.926328		-2.851231		-8.893154		-35.676239		-19.271828		0.872093		0.934581		33.485159		-7.431094		-2.261704		-41.522146		-27.167704		6.761357		13.128576		-39.409258		4.040421		1.397089		-9.074133		-0.989376		-0.055681		-49.962621		-13.313275		-49.092833		48.386920		112.983743		17.096254		-9.099078		-20.664158		-50.501084		-15.029477		-23.242764		46.760622		124.153973		-23.698919		-9.394927		-26.523996		
0.693889		1.675661		8.139947		88.744146		0.022404		0.963341		0.622001		29.886422		-2.747076		-8.078915		-37.418482		-19.014840		1.265816		1.462205		34.420662		-7.287571		-1.822127		-43.320840		-27.404242		6.626170		13.379142		-39.705421		3.981843		1.488669		-8.530083		-1.061129		-0.104109		-49.116368		-13.288645		-48.721829		48.720719		112.993133		17.023095		-9.421383		-20.483994		-49.844250		-14.971294		-23.274107		46.783377		124.217858		-24.014264		-9.585682		-26.456640		
0.696667		1.704933		8.221451		88.673554		0.022271		0.951076		0.618108		30.745567		-2.547363		-7.252027		-39.130964		-18.332549		1.569152		2.192758		35.303471		-7.167187		-1.397888		-45.078770		-27.507360		6.481710		13.786571		-40.060752		3.961838		1.578415		-7.906924		-1.150131		-0.142835		-48.217510		-13.287155		-48.319529		49.074272		113.011905		16.974419		-9.720294		-20.327147		-49.171029		-14.940265		-23.277749		46.856294		124.311492		-24.284189		-9.780022		-26.383907		
0.699444		1.573661		7.805846		88.624551		0.022115		0.937676		0.614319		32.271051		-2.479635		-6.359791		-41.089868		-17.707208		1.898238		7.551272		36.737125		-6.979796		-1.239162		-46.752663		-28.068069		6.277268		18.340616		-39.828702		3.796891		1.554329		-7.432549		-1.147630		-0.141610		-47.298642		-13.353123		-47.713850		49.279971		113.089224		16.593771		-10.195782		-19.923448		-48.496685		-14.905758		-23.410238		46.886211		124.704488		-24.694370		-10.039365		-25.725551		
0.702222		1.758617		8.084402		88.468596		0.022196		0.925807		0.610290		32.794847		-2.020312		-5.650279		-42.855115		-15.831136		2.037199		9.645324		37.325572		-7.019026		-0.796541		-48.473029		-27.281079		6.090332		20.095251		-40.395203		3.860775		1.739233		-6.877551		-1.265157		-0.135124		-46.330359		-13.420659		-47.285470		49.746630		113.098610		16.578459		-10.444808		-19.767835		-47.824557		-14.868214		-23.388826		47.102677		124.860772		-24.903385		-10.191317		-25.562848		
0.705000		1.864440		8.193091		88.331226		0.022117		0.913446		0.606228		33.539235		-1.755688		-5.218938		-44.826690		-13.706297		2.743142		16.403497		38.090416		-7.148743		-0.657372		-50.177333		-26.761678		6.629761		28.555448		-40.746471		3.876219		1.967508		-6.377451		-1.295318		-0.166092		-45.499447		-13.500023		-46.706097		50.215506		113.031962		16.389051		-10.921974		-19.740203		-47.093276		-14.869394		-23.424441		47.329131		125.383241		-25.287521		-10.448892		-25.182487		
0.707778		2.136540		8.508188		88.083248		0.022148		0.901750		0.602129		33.949487		-1.163800		-4.725572		-46.823601		-10.274787		2.832413		17.156713		38.594387		-7.349592		-0.352204		-52.206877		-23.928420		6.674772		29.475022		-41.334340		3.983545		2.191713		-5.942631		-1.411684		-0.157805		-44.423126		-13.691587		-46.302830		50.723554		113.073359		16.470385		-11.083968		-19.697412		-46.369393		-14.848815		-23.264546		47.550380		125.484040		-25.346582		-10.584501		-25.184119		
0.710556		2.368427		8.548790		87.812925		0.022296		0.889533		0.598211		34.758185		-0.648651		-4.367807		-49.130605		-6.342889		3.344798		17.827167		39.355730		-7.581254		0.002555		-54.277773		-20.553574		7.681437		30.939983		-41.634477		4.036435		2.523224		-5.471856		-1.556137		-0.167962		-43.361157		-13.863851		-45.799874		51.134716		113.147313		16.423395		-11.356085		-19.706023		-45.569570		-14.895909		-23.104558		47.781668		125.731812		-25.490367		-10.787817		-25.161271		
0.713333		2.606954		8.527649		87.586643		0.022386		0.877250		0.594499		35.629464		-0.147391		-4.174924		-51.476769		-2.301284		3.389422		17.881543		40.243633		-7.826162		0.315656		-56.571932		-16.763260		8.504939		32.202956		-41.894213		4.127052		2.809696		-4.896781		-1.667880		-0.193507		-42.255621		-14.061294		-45.294058		51.595854		113.213055		16.349968		-11.650749		-19.704380		-44.740078		-14.967524		-22.905037		48.039811		126.040523		-25.665657		-10.953029		-25.097733		
0.716111		2.814278		8.559566		87.347497		0.022287		0.865142		0.590942		36.495409		0.291864		-4.073902		-53.888563		1.579621		3.112783		17.522396		41.071080		-7.993036		0.661211		-59.014019		-12.566685		9.056704		32.901298		-42.224347		4.194933		3.095233		-4.328433		-1.757008		-0.213931		-41.158158		-14.264219		-44.826921		52.176934		113.259279		16.306175		-11.950472		-19.679309		-43.897377		-15.031504		-22.672240		48.399214		126.330989		-25.884705		-11.124695		-25.048361		
0.718889		3.110664		8.303573		87.109473		0.022190		0.852514		0.587593		37.783776		0.792853		-4.161517		-56.434938		5.579282		2.636720		13.152984		42.298917		-8.245194		1.092806		-61.669503		-8.006096		9.741860		30.609012		-42.252698		4.364278		3.441184		-3.778940		-1.882281		-0.278679		-40.040587		-14.483544		-44.378288		52.746598		113.331421		16.114829		-12.349877		-19.518692		-43.034046		-15.122962		-22.305177		48.761566		126.794417		-26.387749		-11.154414		-24.670400		
0.721667		3.301812		8.234292		86.879116		0.022116		0.840595		0.584460		38.911328		1.128065		-4.331473		-58.911459		9.111648		2.066741		9.872820		43.273874		-8.413978		1.383105		-64.232941		-3.900277		10.104984		28.777678		-42.548029		4.413895		3.747386		-2.975573		-2.038040		-0.317009		-38.745448		-14.722343		-43.894945		53.220485		113.416314		16.020760		-12.596057		-19.369708		-42.043794		-15.266833		-21.959113		49.131451		127.141108		-26.754632		-11.220563		-24.377596		
0.724444		3.496025		7.938590		86.555137		0.022026		0.828159		0.581431		40.439799		1.509109		-4.434899		-61.460513		12.094955		1.423428		6.637880		44.583176		-8.684067		1.624987		-66.941447		0.265253		10.996637		24.790875		-42.574561		4.429319		4.216012		-2.338550		-2.035079		-0.309011		-37.611613		-14.972025		-43.416018		53.807094		113.583189		15.876891		-12.999396		-19.177210		-41.018595		-15.431275		-21.472379		49.542702		127.303441		-27.457196		-11.299561		-24.192068		
0.727222		3.573485		8.106510		86.364787		0.021744		0.817149		0.578537		41.435915		1.632238		-4.632133		-63.823547		14.326714		0.728925		5.761236		45.297363		-8.755813		1.698568		-69.351889		3.561668		10.965021		23.727118		-43.141839		4.399611		4.317463		-1.555224		-2.261408		-0.331469		-36.079497		-15.243463		-42.971891		54.324359		113.649326		15.889323		-13.176684		-19.081590		-40.005085		-15.583787		-21.098046		50.005953		127.464990		-27.696463		-11.455051		-24.128762		
0.730000		3.678001		7.590395		86.157139		0.021390		0.804577		0.575893		43.394060		1.853782		-4.792611		-66.363243		16.399506		-0.228192		2.524712		46.974319		-8.883231		1.848694		-71.938033		6.721632		11.181493		18.749458		-42.927517		4.427218		4.590045		-0.967106		-2.219215		-0.336951		-34.782528		-15.512299		-42.532193		54.920443		113.938537		15.702934		-13.661181		-18.700735		-38.938809		-15.777180		-20.512453		50.447458		127.740523		-28.547946		-11.274643		-23.737231		
0.732778		3.665198		7.863037		86.065990		0.021070		0.794239		0.573303		44.394382		1.812910		-5.049815		-68.670153		17.797452		-1.092852		2.541345		47.599373		-8.852945		1.819859		-74.019720		8.967231		11.027283		18.804306		-43.653877		4.348732		4.573769		-0.054293		-2.447710		-0.367546		-33.080371		-15.763569		-42.054726		55.440284		113.963881		15.811928		-13.799227		-18.615282		-37.826901		-15.963074		-20.231142		51.017128		127.877226		-28.745905		-11.452068		-23.768890		
